<?xml version="1.0" encoding="utf-8"?>
<!-- Generator: Adobe Illustrator 23.0.1, SVG Export Plug-In . SVG Version: 6.00 Build 0)  -->
<svg version="1.1" id="Layer_1" xmlns="http://www.w3.org/2000/svg" xmlns:xlink="http://www.w3.org/1999/xlink" x="0px" y="0px"
	 viewBox="0 0 135 29" style="enable-background:new 0 0 135 29;" xml:space="preserve">
<style type="text/css">
	.st0{fill:#FFFFFF;}
	.st1{fill:#185F7C;}
	.st2{fill-rule:evenodd;clip-rule:evenodd;fill:#185F7C;}
</style>
<g>
	<g>
		<path class="st1" d="M24.1837063,18.7562943c0,1.3268337,0.8222466,1.9043083,1.9045448,2.2993221l1.1735287,0.4199429
			c0.7256069,0.2765179,1.1394367,0.5238743,1.1394367,1.1540165c0,0.723484-0.649662,1.0510197-1.574894,1.0510197
			c-0.9494495,0-1.8361263-0.3416443-2.5741901-0.9332256v1.4345245c0.5676003,0.393837,1.490242,0.7058601,2.5741901,0.7058601
			c1.6508408,0,2.9087811-0.8121452,2.9087811-2.2831059c0-1.1685829-0.5819454-1.8798542-1.8490562-2.3378849l-1.3080196-0.4721375
			c-0.6755295-0.2379551-1.059494-0.4742603-1.059494-1.0665455c0-0.6545982,0.6113358-0.9687309,1.4293499-0.9687309
			c0.9503899,0,1.6896381,0.3536263,2.36516,0.867382v-1.4074707c-0.6498985-0.4185371-1.4815464-0.6543694-2.3940849-0.6543694
			C25.4294205,16.5648918,24.1837063,17.3365803,24.1837063,18.7562943"/>
		<rect x="33.3013039" y="16.7022038" class="st1" width="1.3766825" height="8.0623312"/>
		<rect x="8.4864988" y="16.7022038" class="st1" width="1.3783257" height="8.0621014"/>
		<path class="st1" d="M40.0777206,17.9098358h1.683754c1.7028046,0,2.6134644,1.086998,2.6134644,2.8213024
			c0,1.7220917-0.9106598,2.8133221-2.6134644,2.8133221h-1.683754V17.9098358z M38.703392,16.7022038v8.0621014h3.109581
			c2.3936119,0,3.9412308-1.5762978,3.9412308-4.0331669c0-2.4535694-1.5476189-4.0289345-3.9412308-4.0289345H38.703392z"/>
		<polygon class="st1" points="48.6632423,16.7021904 48.6632423,24.7642765 53.5811958,24.7642765 53.5811958,23.5444317 
			50.0105247,23.5444317 50.0105247,21.043375 53.2129898,21.043375 53.2129898,19.8496208 50.0105247,19.8496208 
			50.0105247,17.9095783 53.5811958,17.9095783 53.5811958,16.7021904 		"/>
		<path class="st1" d="M59.0664978,17.8849087h1.5419731c0.9130058,0,1.4277,0.486475,1.4277,1.2341957
			c0,0.7472343-0.5146942,1.2339535-1.4277,1.2339535h-1.5419731V17.8849087z M57.6945152,16.7022038v8.0618725h1.3719826
			v-3.2708797h0.9767265l2.824604,3.2708797h1.5610199l-2.9174843-3.3216686
			c1.2826347-0.1984463,1.8843269-0.9736652,1.8843269-2.3233032c0-1.5784225-1.0841789-2.4169006-2.7608871-2.4169006H57.6945152z"
			/>
		<path class="st1" d="M21.6189213,6.3452578c0,1.3477569,0.8257713,1.9346466,1.9179459,2.3350716l1.1852856,0.4267445
			c0.7324238,0.2802773,1.1450768,0.5337467,1.1450768,1.1740084c0,0.7340736-0.6522446,1.0674791-1.5847664,1.0674791
			c-0.9588566,0-1.8511715-0.3468094-2.5965328-0.9471025v1.4540415c0.5723057,0.400425,1.504591,0.7206707,2.5965328,0.7206707
			c1.665184,0,2.9301777-0.8271847,2.9301777-2.3214235c0-1.1876411-0.5859413-1.9078379-1.8645782-2.3750391l-1.318367-0.4803748
			c-0.679285-0.2400656-1.0656033-0.480361-1.0656033-1.0806394c0-0.6672988,0.6127472-0.9873142,1.4385185-0.9873142
			c0.9588566,0,1.7044487,0.3597541,2.3837376,0.8803263V4.7842436c-0.6524811-0.4270034-1.4916573-0.6672988-2.4105377-0.6672988
			C22.8707447,4.1169448,21.6189213,4.9041471,21.6189213,6.3452578"/>
		<path class="st1" d="M63.2426224,6.3398476c0,1.3472834,0.8257675,1.9346457,1.9177094,2.3350706l1.1852875,0.4267597
			c0.7324295,0.2800331,1.1453094,0.5339766,1.1453094,1.1739931c0,0.7338305-0.6524811,1.0674801-1.5847626,1.0674801
			c-0.9588623,0-1.851181-0.3468094-2.5970078-0.9473324V11.85009c0.5727768,0.4001951,1.5045929,0.7206697,2.5970078,0.7206697
			c1.6647034,0,2.9299393-0.8274136,2.9299393-2.3216524c0-1.1874113-0.5861816-1.908082-1.8645706-2.3750386l-1.318367-0.4801311
			c-0.6792908-0.2403097-1.0653687-0.4803753-1.0653687-1.0808978c0-0.6670547,0.6127396-0.9872999,1.4378052-0.9872999
			c0.9593353,0,1.705162,0.3602133,2.3844452,0.8805561V4.7788329c-0.6527176-0.4272327-1.4916611-0.6672983-2.4105377-0.6672983
			C64.4944458,4.1115346,63.2426224,4.8987508,63.2426224,6.3398476"/>
		<path class="st1" d="M54.8776779,6.3398476c0,1.3472834,0.8257713,1.9346457,1.917942,2.3350706l1.1852875,0.4267597
			c0.7324257,0.2800331,1.1453133,0.5339766,1.1453133,1.1739931c0,0.7338305-0.6529541,1.0674801-1.584774,1.0674801
			c-0.9588547,0-1.8511658-0.3468094-2.5969925-0.9473324V11.85009c0.5723,0.4001951,1.5048218,0.7206697,2.5969925,0.7206697
			c1.6647186,0,2.9299431-0.8274136,2.9299431-2.3216524c0-1.1874113-0.5864105-1.908082-1.8645706-2.3750386l-1.3186035-0.4801311
			c-0.6790543-0.2403097-1.0648994-0.4803753-1.0648994-1.0808978c0-0.6670547,0.612278-0.9872999,1.4375763-0.9872999
			c0.9593315,0,1.7051582,0.3602133,2.384449,0.8805561V4.7788329c-0.6527214-0.4272327-1.4918938-0.6672983-2.4103088-0.6672983
			C56.129734,4.1115346,54.8776779,4.8987508,54.8776779,6.3398476"/>
		<path class="st1" d="M46.7664299,4.2505393v8.1921234h4.953228v-1.2393627h-3.5960617V8.661787h3.2252655V7.4487586h-3.2252655
			v-1.971313h3.5960617V4.2505393H46.7664299z"/>
		<path class="st1" d="M4.345171,8.8402147h1.7578273c0.9325185,0,1.4382811,0.4537964,1.4382811,1.2008018
			c0,0.7338295-0.5057626,1.2008009-1.4382811,1.2008009H4.345171V8.8402147z M4.345171,5.4517713h1.5048275
			c0.9456892,0,1.4519219,0.3331757,1.4519219,1.1069884c0,0.773798-0.5062327,1.1342549-1.4519219,1.1342549H4.345171V5.4517713z
			 M3,4.2504964v8.1923523h3.1298022c1.7046852,0,2.7700524-0.8140097,2.7700524-2.3482304
			c0-0.867382-0.5591345-1.6277905-1.3317709-1.8812599C8.1674299,7.9996266,8.6334543,7.3591361,8.6334543,6.47858
			c0-1.4674454-1.0653706-2.2280836-2.7702889-2.2280836H3z"/>
		<path class="st1" d="M30.7767239,12.4426193h1.3849049V4.250267h-1.3849049V12.4426193z"/>
		<path class="st1" d="M17.0390778,4.250267v4.7766418c0,1.5744181-0.6658821,2.3082485-1.8911428,2.3082485
			c-1.225256,0-1.8911419-0.7338305-1.8911419-2.3082485V4.250267h-1.3851423v4.9238262
			c0,2.2544184,1.3317709,3.4020777,3.2762842,3.4020777c1.9576845,0,3.276288-1.1476593,3.276288-3.3891468V4.250267H17.0390778z"
			/>
		<polygon class="st1" points="41.7343292,4.2502337 41.7343292,9.4881973 36.1133347,4.1228013 36.1133347,12.4426346 
			37.4476891,12.4426346 37.4476891,7.1138763 43.0649223,12.5702734 43.0649223,4.2502337 		"/>
		<polygon class="st1" points="13.8117943,24.7636108 15.1362753,24.7636108 15.1362753,19.5199986 20.7123566,24.8884659 
			20.7123566,16.7017536 19.3911667,16.7017536 19.3911667,21.855772 13.8117943,16.5771275 		"/>
	</g>
	<g>
		<path class="st1" d="M74.888443,11.4760084v1.7536221h0.0132675c0.0919876-0.1885414,0.2365952-0.3258295,0.4333725-0.4109478
			c0.1972351-0.0851183,0.4136963-0.1281357,0.6502914-0.1281357c0.2626724,0,0.4914856,0.0485086,0.6864319,0.1446104
			c0.1944962,0.0961008,0.3564911,0.2269821,0.4860001,0.3908119c0.1290512,0.1638308,0.2265244,0.3532877,0.2919693,0.5683718
			c0.0658951,0.2141685,0.0988464,0.4420662,0.0988464,0.6827774s-0.0320358,0.4686089-0.0956421,0.6827784
			c-0.0631561,0.2150841-0.1597137,0.4017954-0.288765,0.561964c-0.1290512,0.1592541-0.2910461,0.2855587-0.4860001,0.3770828
			c-0.1949463,0.0924416-0.4214706,0.1382046-0.6795731,0.1382046c-0.0832901,0-0.1766434-0.0091534-0.2791519-0.0265427
			c-0.1029663-0.0173893-0.2050171-0.045763-0.3056946-0.0851192c-0.1006775-0.0393543-0.1958618-0.0933552-0.2855606-0.1610842
			c-0.0896912-0.067728-0.1651993-0.1519318-0.2265244-0.2526093H74.888443v0.4530497h-0.5578461v-4.6888342H74.888443z
			 M76.895134,13.9746456c-0.0416489-0.1510162-0.1052551-0.2855587-0.190834-0.4036264
			c-0.0851135-0.1180668-0.1944885-0.2123384-0.3281174-0.2828121c-0.1336288-0.0695591-0.2901306-0.1052542-0.4695206-0.1052542
			c-0.1885452,0-0.348259,0.0375252-0.4795914,0.111661c-0.13134,0.0750504-0.2384262,0.1720667-0.3217163,0.2928801
			c-0.0832825,0.1198978-0.143692,0.2571859-0.1807632,0.4100332c-0.0370636,0.1537619-0.0558243,0.3084393-0.0558243,0.4667778
			c0,0.1656609,0.0196762,0.326745,0.0590286,0.482338c0.0398178,0.1555929,0.1020508,0.2919655,0.1871719,0.4100323
			c0.0855789,0.1189833,0.1963196,0.2141695,0.3317795,0.2864742c0.13591,0.0713892,0.2997437,0.1079998,0.4928589,0.1079998
			c0.1922073,0,0.3532867-0.0375252,0.482338-0.111661c0.1290512-0.0741348,0.2333908-0.1729822,0.3121033-0.2956266
			c0.0787125-0.1226435,0.1354599-0.2626772,0.1706924-0.4201002c0.0352402-0.157423,0.0526276-0.3194227,0.0526276-0.4859982
			C76.9573669,14.2803392,76.9363174,14.1256618,76.895134,13.9746456z"/>
		<path class="st1" d="M79.5383759,16.6178932c-0.0658951,0.1665745-0.1304245,0.3066082-0.1940308,0.4200993
			c-0.0631561,0.1144066-0.1336288,0.2068481-0.2100525,0.2791519c-0.0764236,0.0723057-0.1619949,0.1253891-0.2562714,0.1583385
			c-0.093811,0.0320339-0.2022705,0.0485077-0.324913,0.0485077c-0.0654373,0-0.13134-0.0036602-0.1967773-0.0128136
			c-0.0658951-0.0091515-0.129509-0.0237961-0.190834-0.0457611v-0.5125408
			c0.0485153,0.021965,0.1043396,0.0402699,0.1674957,0.05583c0.0636063,0.0155582,0.1171494,0.0228806,0.161087,0.0228806
			c0.113945,0,0.2091293-0.0274563,0.285553-0.0823727c0.0764236-0.0539989,0.1345444-0.1317959,0.1738968-0.2324734
			l0.2301865-0.5720329l-1.3463364-3.3754473h0.6306152l0.9916687,2.7787037h0.0128174l0.9523163-2.7787037h0.5912552
			L79.5383759,16.6178932z"/>
	</g>
	<path class="st2" d="M119.4338989,15.0590219c-0.3433075-0.2515469-0.5882263-0.924222-2.1314697-1.5450392
		c-0.4489975-0.1806278-0.9370956-0.3074207-1.4496994-0.4160347c-2.7705612-0.587513-1.1627197-3.1709871,0.4320984-2.1880455
		c0.0731964,0.0451021,0.2503891,0.1890574,0.2867508,0.2071362c0.2115326,0.1052494,2.4159851,0.0459652,2.7526093,0.0459652
		c-0.0149155-0.6682119-0.6261444-1.3024063-1.0841599-1.7144098c-1.3082428-1.1767864-4.4102478-1.4312391-5.9170609,0.6395645
		c-0.4968643,0.6827316-0.7862244,2.0245285-0.4000168,3.0435581c0.2926254,0.77209,0.9498672,1.2259092,1.616066,1.6214638
		c0.1239929,0.0736208,0.1753769,0.1139851,0.3151093,0.1787443c0.8082275,0.3744688,2.1885071,0.7855053,2.6700058,1.0614252
		c2.0366287,1.1671324-0.9548264,3.943408-2.5775681,0.8764963h-2.6339417V4.4684086h-2.5242157V8.968009h-2.3047333
		c0,1.7949085,0.0911407,3.8332405,0.0003357,5.5974684c-0.1945572,3.7826672-5.4563675,3.9732265-5.433548,0.0552845
		c0.0109482-1.8830481,0.0007095-3.7693262,0.0007095-5.6527529h-2.5790405l-0.0549088,4.3898945
		c0-0.7269917-0.5722809-1.7887983-0.9655685-2.38169c-1.8913269-2.8515196-6.0222321-3.5218725-8.6845016-1.5066109
		c-0.2371597,0.1795282-0.4053345,0.3228779-0.6427994,0.5095396c-0.4360733,0.3426638-0.7873383,0.7015991-1.1136017,1.1362181
		c-0.1641769,0.2185936-0.3197708,0.4607449-0.4469452,0.7054186c-0.258606,0.497366-0.4843292,1.0750227-0.5965881,1.7080956
		c-0.0588455,0.331769-0.0948792,1.0347166-0.116066,1.9283504v8.1621256v0.7582321
		c0.0989609,0.2509384,0.5833664,0.1197147,2.5790405,0.1197147v-5.1581135
		c1.8575592,0.9828682,3.9039383,1.8544502,6.3670349,0.7698994c1.3826294-0.6088276,2.4777451-1.6358528,3.1273651-2.9636459
		c0.1625519-0.3320961,0.49263-1.124403,0.49263-1.5925636h0.0549088c0,2.6295414,2.014061,4.0691566,4.4445724,4.3351955
		c1.7876968,0.1956768,3.195816-0.1078968,4.4452515-0.9327774c0.9300461-0.613945,1.0535812-1.1658077,1.3861847-1.7964344
		c0.004921-0.0092697,0.0160217-0.0274277,0.0200958-0.0348129c0.0040207-0.0074348,0.0125046-0.0237103,0.0201721-0.0346603
		v2.963192h2.5242157v-3.1278248l0.1294098,0.3643856c0.0412827,0.1478271,0.0601044,0.2429161,0.1123352,0.3815975
		c0.2816696,0.7482567,0.5395584,1.2671394,1.1160431,1.847065c0.6350403,0.6388035,1.6128311,1.142128,2.8662491,1.1397095
		c1.4785538-0.0028534,2.1755142-0.2913761,3.0204086-0.9330826c0.3674164-0.2790737,0.6870651-0.6271133,0.9426346-1.0328274
		c0.403244-0.640358,0.3797836-0.8142338,0.5378036-1.492506l0.4602127,0.7470303
		c0.1738281,0.2596951,0.3460999,0.4834881,0.543663,0.7184296c0.3268204,0.3887577,0.9175949,0.825388,1.372818,1.0964947
		c2.264679,1.3489323,5.7722168,1.1058884,7.5965881-0.6002979c0.3571167-0.3339558,0.5608673-0.4941101,0.884491-0.9262829
		c0.1014252-0.1355267,0.1766815-0.2395554,0.2711945-0.3873806c0.2205963-0.3451843,0.7126312-1.3007774,0.7237854-1.8003349
		h-2.7985687c-0.1050415,0.1569195-0.1752319,0.3132248-0.2961884,0.4720306
		c-0.0754395,0.0990868-0.1045837,0.1130123-0.1806335,0.203495c-1.6093445,1.914875-4.6662979,1.5919247-5.9664383-0.2683792
		c-0.1158676-0.1657848-0.2018127-0.2916603-0.2893143-0.4789572c-0.2662354-0.5702248-0.2732925-1.0933599-0.3461533-1.2451591H132
		c0-0.9210358-0.2838135-1.9052029-0.5557098-2.5720663c-0.7628937-1.871026-2.3925781-3.1570377-4.3892365-3.5125837
		c-1.2587051-0.2241259-2.8377686-0.0706434-3.9819107,0.5051336c-1.4233093,0.7162418-2.5675049,1.6274986-3.1847076,3.180563
		C119.5149765,13.2706823,119.4338989,13.7694006,119.4338989,15.0590219L119.4338989,15.0590219z M89.6373825,14.126194
		l-2.9357071,0.1372118l3.15522,0.1920319l0.7133713-2.0851889l1.4816055,5.7617435l1.3717957-3.5119457l4.3899765-0.3018169
		l-4.5820084-0.0548239l-1.0974579,2.5790377l-1.4815826-5.6520348L89.6373825,14.126194L89.6373825,14.126194z
		 M122.8361435,12.4799757h5.816597C127.3155441,10.4737282,123.9969025,10.4070387,122.8361435,12.4799757L122.8361435,12.4799757z
		"/>
</g>
</svg>
